<svg viewBox="0 0 64 64" xmlns="http://www.w3.org/2000/svg"><path d="M38.342 37.69c0 1.904-.679 3.191-2.034 3.864-.747.364-1.792.546-3.134.546h-7.515v-8.251h7.619c1.328.013 2.359.188 3.093.524 1.314.602 1.971 1.707 1.971 3.317Zm-5.161-8.967h-7.523V21.9h6.734c1.483 0 2.703.16 3.659.483 1.107.462 1.661 1.413 1.661 2.855 0 1.303-.42 2.209-1.257 2.72-.837.51-1.93.766-3.274.765ZM64 32c0 17.673-14.327 32-32 32C14.327 64 0 49.673 0 32 0 14.327 14.327 0 32 0c17.673 0 32 14.327 32 32Zm-18.24 6.131c0-1.778-.402-3.289-1.205-4.535-.805-1.246-1.997-2.157-3.577-2.731 1.041-.532 1.826-1.119 2.362-1.763.954-1.148 1.433-2.667 1.433-4.556 0-1.835-.473-3.409-1.42-4.725-1.575-2.142-4.249-3.241-8.022-3.296H20.373v30.95h13.945c1.573 0 3.03-.14 4.373-.42 1.343-.281 2.509-.798 3.498-1.554a8.536 8.536 0 0 0 2.192-2.435c.919-1.456 1.378-3.101 1.379-4.935Z" fill="#1e88e5"/></svg>